<?xml version="1.0" encoding="UTF-8" standalone="no"?>
<svg
   xmlns:dc="http://purl.org/dc/elements/1.1/"
   xmlns:cc="http://creativecommons.org/ns#"
   xmlns:rdf="http://www.w3.org/1999/02/22-rdf-syntax-ns#"
   xmlns:svg="http://www.w3.org/2000/svg"
   xmlns="http://www.w3.org/2000/svg"
   xmlns:sodipodi="http://sodipodi.sourceforge.net/DTD/sodipodi-0.dtd"
   xmlns:inkscape="http://www.inkscape.org/namespaces/inkscape"
   width="120.65mm"
   height="128.59676mm"
   viewBox="0 0 120.65 128.59676"
   version="1.1"
   id="svg8"
   inkscape:version="1.0.1 (3bc2e813f5, 2020-09-07)"
   sodipodi:docname="icon.svg">
  <defs
     id="defs2" />
  <sodipodi:namedview
     id="base"
     pagecolor="#ffffff"
     bordercolor="#666666"
     borderopacity="1.0"
     inkscape:pageopacity="0.0"
     inkscape:pageshadow="2"
     inkscape:zoom="0.7"
     inkscape:cx="109.08492"
     inkscape:cy="165.72173"
     inkscape:document-units="mm"
     inkscape:current-layer="layer1"
     inkscape:document-rotation="0"
     showgrid="false"
     inkscape:window-width="1920"
     inkscape:window-height="1017"
     inkscape:window-x="-8"
     inkscape:window-y="-8"
     inkscape:window-maximized="1" />
  <metadata
     id="metadata5">
    <rdf:RDF>
      <cc:Work
         rdf:about="">
        <dc:format>image/svg+xml</dc:format>
        <dc:type
           rdf:resource="http://purl.org/dc/dcmitype/StillImage" />
        <dc:title></dc:title>
      </cc:Work>
    </rdf:RDF>
  </metadata>
  <g
     inkscape:label="Capa 1"
     inkscape:groupmode="layer"
     id="layer1"
     transform="translate(-34.925002,-43.046859)">
    <path
       d="m 94.985417,50.213098 c 0.903817,0 1.852084,-0.73316 1.852084,-1.637242 V 44.6841 c 0,-0.903816 -0.948267,-1.637241 -1.852084,-1.637241 -0.903816,0 -1.852083,0.73316 -1.852083,1.637241 v 3.891756 c 0,0.903817 0.948267,1.637242 1.852083,1.637242 z"
       id="path833"
       style="fill:#2e90cc;fill-opacity:1;stroke-width:0.264583" />
    <path
       d="m 108.20638,55.380675 c 0.4191,0 0.83767,-0.160073 1.15755,-0.47969 l 2.7522,-2.752195 c 0.63923,-0.639763 0.63923,-1.6764 0,-2.315104 -0.63976,-0.639234 -1.67534,-0.639234 -2.3151,0 l -2.7522,2.752195 c -0.63923,0.639234 -0.63923,1.675871 0,2.315104 0.31988,0.319617 0.73845,0.47969 1.15755,0.47969 z"
       id="path835"
       style="fill:#2e90cc;fill-opacity:1;stroke-width:0.264583" />
    <path
       d="m 80.971232,55.36771 c 0.319881,0.319882 0.738452,0.47969 1.157552,0.47969 0.4191,0 0.837671,-0.159808 1.157552,-0.47969 0.639763,-0.638704 0.639763,-1.675341 0,-2.315104 L 80.534141,50.30094 c -0.639234,-0.639763 -1.675342,-0.639763 -2.314575,0 -0.639763,0.638704 -0.639763,1.675341 0,2.314575 z"
       id="path837"
       style="fill:#2e90cc;fill-opacity:1;stroke-width:0.264583" />
    <path
       d="m 73.24143,73.053519 c -0.281252,-1.423723 -0.424391,-2.905125 -0.424391,-4.402932 0,-1.658937 0.182033,-3.310995 0.540543,-4.910402 0.197909,-0.881591 -0.356658,-1.757627 -1.239308,-1.955535 -0.875506,-0.194733 -1.757627,0.356129 -1.956065,1.239308 -0.410897,1.834092 -0.619654,3.72745 -0.619654,5.626629 0,1.710532 0.163777,3.405452 0.487363,5.038461 0.153987,0.779727 0.8382,1.319741 1.604169,1.319741 0.104775,0 0.211931,-0.01032 0.319352,-0.03201 0.887148,-0.174625 1.463675,-1.036373 1.287991,-1.923256 z"
       id="path839"
       style="fill:#2e90cc;fill-opacity:1;stroke-width:0.264583" />
    <path
       d="m 117.39033,77.849091 c -0.8083,-0.40296 -1.79255,-0.07223 -2.19471,0.737394 -3.80657,7.659952 -11.48054,12.419806 -20.02764,12.422452 -8.547364,-0.0026 -16.22081,-4.7625 -20.027106,-12.422452 -0.40296,-0.809889 -1.387475,-1.140619 -2.194719,-0.737394 -0.809889,0.402167 -1.140089,1.302809 -0.737923,2.113227 4.361921,8.777817 13.152702,14.158384 22.947048,14.158384 0.0016,0 0.0037,0 0.0053,0 0.0048,0 0.01032,0 0.01508,0 0.0021,0 0.0037,0 0.0053,0 9.79434,0 18.58593,-5.380567 22.94732,-14.158384 0.4019,-0.810418 0.0717,-1.71106 -0.73794,-2.113227 z"
       id="path841"
       style="fill:#2e90cc;fill-opacity:1;stroke-width:0.264583" />
    <path
       d="m 120.29705,73.691694 c 0.32914,-1.649942 0.49609,-3.345657 0.49609,-5.041107 0,-1.903148 -0.21087,-3.803385 -0.62521,-5.647266 -0.19844,-0.88265 -1.07527,-1.438275 -1.95659,-1.237721 -0.8816,0.197908 -1.43616,1.073944 -1.23772,1.956065 0.36168,1.608666 0.5453,3.267074 0.5453,4.928922 0,1.48008 -0.14631,2.960952 -0.43365,4.400286 -0.17674,0.886883 0.39899,1.748631 1.28561,1.925902 0.10795,0.0217 0.21537,0.03201 0.322,0.03201 0.76438,2.65e-4 1.44806,-0.538956 1.60417,-1.317095 z"
       id="path843"
       style="fill:#2e90cc;fill-opacity:1;stroke-width:0.264583" />
    <path
       d="M 110.98504,99.941535 H 79.105126 c -0.981869,0 -2.111375,1.160465 -2.111375,2.148945 v 0.59531 66.96446 c 0,0.98239 1.129771,1.72878 2.111375,1.72878 h 31.879644 c 0.98187,0 1.72747,-0.74639 1.72747,-1.72878 v -66.96446 -0.59531 c 2.6e-4,-0.98848 -0.74534,-2.148945 -1.7272,-2.148945 z"
       id="path845"
       style="fill:#2e90cc;fill-opacity:1;stroke-width:0.264583" />
    <path
       d="m 82.640488,67.192998 5.841471,4.347898 c 0.433123,0.314589 0.613834,0.923925 0.448998,1.432983 l -2.231496,6.893189 c -0.369358,1.137973 0.932657,2.097353 1.900767,1.39409 l 5.841471,-4.23836 c 0.433123,-0.31459 1.019175,-0.311415 1.452033,0.0032 l 5.841468,4.246298 c 0.96785,0.703262 2.27013,-0.242623 1.90024,-1.380332 l -2.23097,-6.866731 c -0.16536,-0.509058 0.0161,-1.066271 0.44847,-1.380596 l 5.842,-4.451879 c 0.96838,-0.703262 0.47017,-2.441046 -0.72601,-2.441046 h -7.220748 c -0.534723,0 -1.009121,-0.137583 -1.174485,-0.646641 L 96.342201,57.341502 C 95.972842,56.203 94.363117,56.255123 93.992965,57.393096 l -2.230966,6.686021 c -0.165894,0.509058 -0.640292,0.67257 -1.175015,0.67257 h -7.221273 c -1.195916,2.65e-4 -1.693068,1.738048 -0.725223,2.441311 z"
       id="path847"
       style="fill:#2e90cc;fill-opacity:1;stroke-width:0.264583" />
    <path
       d="m 70.643751,136.38789 c 0,-0.98637 -0.799571,-1.78594 -1.785937,-1.78594 H 36.710939 c -0.986367,0 -1.785937,0.79957 -1.785937,1.78594 v 33.46979 c 0,0.98637 0.79957,1.78594 1.785937,1.78594 h 32.146875 c 0.986366,0 1.785937,-0.79957 1.785937,-1.78594 z"
       id="path849"
       style="fill:#2e90cc;fill-opacity:1;stroke-width:0.264583" />
    <path
       d="m 49.254835,114.86298 c 0.274902,0.20002 0.389731,0.5535 0.284691,0.87656 l -0.771525,2.37358 c -0.234156,0.72205 0.591609,1.32186 1.205707,0.87603 l 2.019564,-1.46711 c 0.274902,-0.1995 0.646377,-0.1995 0.92075,0 l 2.019565,1.46711 c 0.613833,0.44609 1.439598,-0.15398 1.205706,-0.87603 l -0.771525,-2.37358 c -0.104775,-0.32306 0.0098,-0.67654 0.284162,-0.87656 l 2.020094,-1.53247 c 0.613834,-0.44503 0.298186,-1.48273 -0.460375,-1.48273 h -2.496608 c -0.338931,0 -0.640292,-0.15292 -0.744538,-0.47545 l -0.771525,-2.34103 c -0.234156,-0.72205 -1.255712,-0.70591 -1.489868,0.0161 l -0.771525,2.31643 c -0.104775,0.32306 -0.406136,0.48392 -0.745596,0.48392 h -2.49555 c -0.75856,0 -1.074473,1.0377 -0.460375,1.48273 z"
       id="path851"
       style="fill:#2e90cc;fill-opacity:1;stroke-width:0.264583" />
    <path
       d="m 52.453647,128.78191 c 7.972161,0 14.457627,-6.48546 14.457627,-14.4571 0,-7.97163 -6.485466,-14.457358 -14.457627,-14.457358 -7.971631,0 -14.457627,6.485998 -14.457627,14.457628 0,7.97163 6.485996,14.45683 14.457627,14.45683 z m 0,-25.64024 c 6.176433,0 11.183408,5.00698 11.183408,11.18341 0,6.17643 -5.006975,11.18288 -11.183408,11.18288 -6.175904,0 -11.183408,-5.00645 -11.183408,-11.18288 0,-6.17643 5.007504,-11.18341 11.183408,-11.18341 z"
       id="path853"
       style="fill:#2e90cc;fill-opacity:1;stroke-width:0.264583" />
    <path
       d="m 155.575,136.38789 c 0,-0.98637 -0.79957,-1.78594 -1.78594,-1.78594 h -32.14687 c -0.98637,0 -1.78594,0.79957 -1.78594,1.78594 v 33.46979 c 0,0.98637 0.79957,1.78594 1.78594,1.78594 h 32.14687 c 0.98637,0 1.78594,-0.79957 1.78594,-1.78594 z"
       id="path855"
       style="fill:#2e90cc;fill-opacity:1;stroke-width:0.264583" />
    <path
       d="m 134.43717,114.86298 c 0.27491,0.20002 0.38973,0.5535 0.28469,0.87656 l -0.77099,2.37358 c -0.23469,0.72205 0.59161,1.32186 1.20571,0.87603 l 2.01903,-1.46711 c 0.2749,-0.1995 0.64638,-0.1995 0.92075,0 l 2.01957,1.46711 c 0.61383,0.44609 1.44012,-0.15398 1.20623,-0.87603 l -0.77152,-2.37358 c -0.10531,-0.32306 0.01,-0.67654 0.28416,-0.87656 l 2.01956,-1.53247 c 0.61384,-0.44503 0.29819,-1.48273 -0.46037,-1.48273 h -2.49661 c -0.33946,0 -0.63976,-0.15292 -0.74454,-0.47545 l -0.77152,-2.34103 c -0.23416,-0.72205 -1.25572,-0.70591 -1.48987,0.0161 l -0.77153,2.31643 c -0.10477,0.32306 -0.4056,0.48392 -0.74506,0.48392 h -2.49608 c -0.75856,0 -1.07448,1.0377 -0.46038,1.48273 z"
       id="path857"
       style="fill:#2e90cc;fill-opacity:1;stroke-width:0.264583" />
    <path
       d="m 137.63599,128.78191 c 7.97216,0 14.45815,-6.48546 14.45815,-14.4571 0,-7.97163 -6.48599,-14.457623 -14.45815,-14.457623 -7.97164,0 -14.45763,6.485993 -14.45763,14.457623 0,7.97164 6.48599,14.4571 14.45763,14.4571 z m 0,-25.64024 c 6.17643,0 11.18393,5.00698 11.18393,11.18341 0,6.17643 -5.0075,11.18288 -11.18393,11.18288 -6.17591,0 -11.18341,-5.00645 -11.18341,-11.18288 0,-6.17643 5.0075,-11.18341 11.18341,-11.18341 z"
       id="path859"
       style="fill:#2e90cc;fill-opacity:1;stroke-width:0.264583" />
  </g>
</svg>
